<?xml version="1.0" encoding="UTF-8"?>
<svg id="Capa_1" data-name="Capa 1" xmlns="http://www.w3.org/2000/svg" viewBox="0 0 728.75 309.67">
  <defs>
    <style>
      .cls-1 {
        fill: #fff;
      }
    </style>
  </defs>
  <g>
    <path class="cls-1" d="M23.71,162.07c-4.68,2.89-13.08,9.15-12.55,29.94v7.79H0v18.74h11.16v84.66h26.42v-84.66h22.04v-18.74h-22.04v-7.3c0-5.26.83-8.81,2.49-10.66,1.66-1.85,5.21-6.68,20-4.72l.33-19.08c-7.21-2.34-24.27-3.64-36.69,4.04Z"/>
    <path class="cls-1" d="M157.32,269.21l.28-31.93c0-11.88-3.41-20.04-5.77-24.49-2.35-4.44-6.41-8.11-12.18-11-5.77-2.89-14.54-4.33-26.33-4.33-12.98,0-20.59,2.98-27.17,7.78-6.58,4.8-12.89,13.89-14.4,27.75h25.42s.28-18.41,19.36-17.44c8.99.46,13.69,8.9,13.69,14.16l-.28,10.04s-13.78-1.43-26.22.45c-20.31,3.07-29.65,14.56-32.35,19.13-2.7,4.58-4.04,9.79-4.04,15.63,0,8.83,2.96,16.13,8.89,21.91,5.92,5.78,14.03,8.66,24.31,8.66,5.83,0,11.31-1.14,16.46-3.41,5.14-2.27,9.38-4.86,13.79-13.03.19.52,2.13,14.1,2.13,14.1h26.48c-2.32-4.93-2.08-24.89-2.08-33.98ZM130.06,271.16c-1.71,9.15-11.31,14.53-18.36,14.53-9.27,0-16.66-5.05-15.92-15.37.85-11.89,12.46-15.21,35.39-14.61,0,0,.61,6.28-1.11,15.46Z"/>
    <path class="cls-1" d="M679.75,273.35l.28-31.93c0-11.88-3.41-20.04-5.77-24.49-2.35-4.44-6.41-8.11-12.18-11-5.77-2.89-14.54-4.33-26.33-4.33-12.98,0-20.59,2.98-27.17,7.78-6.58,4.8-12.89,13.89-14.4,27.75h25.42s.28-18.41,19.36-17.45c8.99.46,13.69,8.9,13.69,14.16l-.28,10.04s-13.78-1.43-26.22.45c-20.31,3.07-29.65,14.56-32.35,19.13-2.7,4.58-4.04,9.79-4.04,15.63,0,8.83,2.96,16.13,8.89,21.91,5.92,5.78,14.03,8.66,24.31,8.66,5.83,0,11.31-1.14,16.46-3.41,5.14-2.27,9.38-4.86,13.79-13.03.19.52,2.13,14.1,2.13,14.1h26.48c-2.32-4.93-2.08-24.89-2.08-33.98ZM652.49,275.3c-1.71,9.15-11.31,14.53-18.36,14.53-9.27,0-16.66-5.05-15.92-15.37.85-11.89,12.46-15.21,35.39-14.61,0,0,.61,6.28-1.11,15.46Z"/>
    <path class="cls-1" d="M221.97,216.27c14.59.21,19.39,13.58,20.3,18.97l26.23.7c-2.11-13.11-9.94-24.93-17.37-30.35-7.43-5.42-17.43-8.13-30.02-8.13-15.37,0-27.57,4.75-36.59,14.26-9.02,9.51-13.52,22.8-13.52,39.87s4.49,30.08,13.48,39.62c8.98,9.54,21.03,14.31,36.15,14.31,13.3,0,41.32-5.09,47.87-39.62l-26.22-.27c-1.36,7.2-8.46,20.05-20.3,20.05-6.94,0-12.8-3.02-16.92-8.08-4.12-5.06-7.83-15.44-7.83-27.7,0-11.03,4.44-33.92,24.74-33.63Z"/>
    <path class="cls-1" d="M319.08,180.03l-27.94-.21v24.34h-14.99v18.28h14.99v45.72c0,9.81.63,16.28.89,19.55,1.02,12.67,7.14,24.75,46.01,19.01l-.05-17.05s-18.84,6.09-18.92-14.36v-52.87h21.26v-18.28h-21.26v-24.14Z"/>
    <path class="cls-1" d="M400.92,201.6c-10.12,0-19.29,2.24-27.49,6.72-8.21,4.48-14.55,10.97-19.03,19.47-4.48,8.5-6.72,17.3-6.72,26.38,0,11.88,2.24,21.95,6.72,30.23,4.48,8.27,11.01,14.55,19.61,18.84,8.6,4.28,17.63,6.43,27.1,6.43,15.31,0,28.01-5.14,38.1-15.43,10.09-10.29,15.13-23.25,15.13-38.89s-5-28.35-14.99-38.5c-9.99-10.16-22.81-15.24-38.44-15.24ZM418.97,281.42c-4.83,5.97-10.82,8.95-17.96,8.95s-13.14-2.98-18-8.95c-4.87-5.97-7.3-14.56-7.3-25.79s2.43-19.82,7.3-25.79c4.87-5.97,10.87-8.95,18-8.95s13.12,2.98,17.96,8.95c4.83,5.97,7.25,14.49,7.25,25.58s-2.42,20.04-7.25,26Z"/>
    <path class="cls-1" d="M510.08,205.55c-8.37,5.43-11.74,14.71-11.74,14.71v-16.33h-28.46v103.39h28.23v-31.93c0-17.59.79-29.14,2.36-34.66,1.57-5.52,9.21-19.34,30.12-16.79v-21.09s-11.03-3.47-20.51,2.69Z"/>
    <rect class="cls-1" x="543.1" y="203.94" width="26.42" height="103.39"/>
    <path class="cls-1" d="M703.11,0h-82.23c-7.97,0-40.64,10.08-40.92,10.46h92.08c14.16,0,25.64,10.17,25.64,22.72v106.27c0,12.55-10.62,21.86-24.78,21.86h-88.91l-40.1,29.97h24.08l55.44-18.82h79.7c14.16,0,25.64-12.71,25.64-26.87V25.64c0-14.16-11.48-25.64-25.64-25.64Z"/>
  </g>
  <g>
    <path class="cls-1" d="M621.22,140.87v-45.39h23.82v7.55h-14.91v10.56h12.72v7.55h-12.72v19.73h-8.91Z"/>
    <path class="cls-1" d="M677.23,123.96c-.8-15.68-15.88-14.7-17.79-13.75l.39-7.28h15.42v-8.01h-22.62l-2.17,24.11s4.59-2.24,7.86-2.24c5.15,0,9.33,3.78,9.33,8.45s-4.18,8.45-9.33,8.45c-3.14,0-6.45-1.34-8.13-3.5l-2.2,7.85s5.28,3.9,13.95,3.9c5.15,0,15.98-4.33,15.28-17.98Z"/>
  </g>
</svg>